<?xml version="1.0" encoding="UTF-8" standalone="no"?>
<!-- Created with Inkscape (http://www.inkscape.org/) -->

<svg
   width="269.14551mm"
   height="269.23901mm"
   viewBox="0 0 269.14551 269.23901"
   version="1.1"
   id="svg5"
   xml:space="preserve"
   xmlns:inkscape="http://www.inkscape.org/namespaces/inkscape"
   xmlns:sodipodi="http://sodipodi.sourceforge.net/DTD/sodipodi-0.dtd"
   xmlns="http://www.w3.org/2000/svg"
   xmlns:svg="http://www.w3.org/2000/svg"><sodipodi:namedview
     id="namedview7"
     pagecolor="#ffffff"
     bordercolor="#000000"
     borderopacity="0.25"
     inkscape:showpageshadow="2"
     inkscape:pageopacity="0.0"
     inkscape:pagecheckerboard="0"
     inkscape:deskcolor="#d1d1d1"
     inkscape:document-units="mm"
     showgrid="false" /><defs
     id="defs2" /><g
     inkscape:label="Capa 1"
     inkscape:groupmode="layer"
     id="layer1"
     transform="translate(-294.82557,-3.271784)"><path
       style="fill:#610000;fill-opacity:1;stroke-width:0.264583"
       d="m 417.838,272.29606 c -15.2224,-1.06862 -32.95307,-6.06803 -47.7573,-13.46583 -9.51923,-4.75681 -14.97822,-8.19615 -23.95386,-15.09162 -7.16678,-5.50584 -17.37324,-15.71722 -22.6128,-22.62371 -0.36381,-0.47954 -1.38522,-1.8064 -2.26981,-2.94857 -2.2001,-2.84074 -6.2994,-8.92832 -8.16877,-12.13085 -0.84943,-1.45521 -1.85964,-3.18162 -2.24491,-3.83646 -1.12548,-1.91295 -4.67919,-9.23944 -5.85714,-12.07534 -3.12028,-7.512 -5.66318,-15.43786 -7.50691,-23.39794 -1.95534,-8.44192 -2.64091,-15.99237 -2.64091,-29.08506 0,-12.83898 0.69227,-20.6042 2.53569,-28.44271 3.47765,-14.787553 8.60806,-27.577813 16.18471,-40.348957 1.62452,-2.738287 5.7672,-9.005616 6.89622,-10.43309 0.45258,-0.572212 1.00146,-1.303976 1.21974,-1.62614 1.98302,-2.926779 7.59237,-9.464012 11.67424,-13.605355 9.16437,-9.297892 18.27991,-16.258172 29.95469,-22.872272 0.70397,-0.398825 2.84966,-1.517671 4.76819,-2.486329 22.53795,-11.3793272 39.30545,-15.0531192 66.18309,-14.5008472 11.17728,0.229667 16.14487,0.770076 23.81251,2.590495 23.07201,5.4776582 41.37285,14.5763262 58.43679,29.0531352 6.47104,5.489946 16.63302,16.162656 20.67362,21.712662 0.29105,0.399762 1.42214,1.953331 2.51355,3.452379 1.0914,1.499047 2.2225,3.114926 2.51354,3.590845 0.29104,0.47592 1.30307,2.086946 2.24896,3.580062 0.94588,1.493115 2.11145,3.433701 2.59016,4.312417 1.34409,2.467235 6.04473,12.099984 6.26695,12.842455 0.10888,0.363802 0.59613,1.613958 1.08278,2.778125 3.00508,7.188645 6.64054,19.194745 7.89144,26.061455 1.22409,6.71947 1.88394,17.70327 1.65306,27.51667 -0.46077,19.58444 -2.77635,31.22243 -9.33503,46.91752 -0.77996,1.86645 -1.41811,3.44023 -1.41811,3.49729 0,0.31962 -5.05079,10.41883 -6.3363,12.66964 -3.69399,6.46783 -4.28445,7.38388 -8.70963,13.51243 -2.49349,3.45331 -2.98316,4.08621 -5.22613,6.75486 -15.27759,18.17705 -35.38566,32.28434 -57.70433,40.48383 -7.50439,2.75698 -18.0615,5.56239 -23.75591,6.31274 -9.7484,1.28461 -25.42542,1.90606 -33.60208,1.33207 z m 23.54792,-10.05612 c 14.42262,-0.9493 32.37707,-6.3178 46.56666,-13.92381 11.29972,-6.05694 21.04348,-13.27589 29.90591,-22.15665 3.80738,-3.81526 8.75933,-9.46427 11.10564,-12.66892 0.72698,-0.99294 1.57078,-2.12403 1.87511,-2.51354 4.03987,-5.17066 10.3432,-16.2786 13.53921,-23.85925 8.37813,-19.87213 11.53057,-40.46725 9.45647,-61.78021 -2.05867,-21.15479 -10.47933,-43.683002 -22.89457,-61.251047 -5.89602,-8.343086 -16.3135,-18.81847 -25.50372,-25.645471 -15.33056,-11.388384 -33.0971,-19.599477 -50.0278,-23.12115 -7.90134,-1.643519 -15.57814,-2.297964 -26.95566,-2.297964 -11.05007,0 -16.53258,0.528086 -24.63818,2.373201 -14.5639,3.31525 -29.87505,8.954246 -37.95829,13.979787 -2.83437,1.762192 -2.82721,1.754347 -2.08297,2.282823 7.05882,5.012422 9.98871,8.093337 13.98104,14.701689 3.60074,5.960163 6.08496,12.506771 8.72687,22.997706 0.45516,1.807435 0.99515,3.687319 1.19996,4.177517 0.36356,0.870107 0.40247,0.88795 1.63836,0.751324 0.69627,-0.07697 2.57564,-0.267303 4.17637,-0.422957 1.60073,-0.155652 4.87495,-0.563925 7.27604,-0.90727 2.40109,-0.343344 5.73484,-0.770244 7.40833,-0.948666 1.67349,-0.178422 5.3049,-0.576834 8.0698,-0.885359 l 5.02708,-0.560959 0.1437,-17.458479 c 0.14736,-17.902852 0.19112,-18.615608 1.21221,-19.743897 0.67533,-0.746236 1.19263,-0.614336 3.37624,0.860856 3.49677,2.362338 6.87723,6.043401 9.62604,10.48203 2.15898,3.486198 5.20671,10.395824 6.27482,14.225863 1.46631,5.257912 3.11394,10.837215 3.35954,11.376232 0.15701,0.344601 0.59745,0.750075 0.97875,0.901055 0.70402,0.278759 6.09309,1.293881 13.52558,2.547768 7.71091,1.300861 17.19421,3.973576 24.34166,6.86031 5.7107,2.30645 12.31672,6.012942 16.78123,9.415563 2.94526,2.244733 9.44428,9.189771 10.24584,10.949005 0.51923,1.13958 0.10696,1.27969 -2.84813,0.96795 -7.82636,-0.82562 -34.24746,-1.92998 -35.95009,-1.50264 -0.63293,0.15885 -0.6901,0.24085 -0.37482,0.53761 0.20461,0.19259 1.02686,0.59249 1.82722,0.88867 5.78446,2.14054 13.54581,6.45661 20.63751,11.47649 7.20187,5.09787 17.17021,15.16697 22.47873,22.70596 3.59243,5.10187 6.35403,9.95497 9.78742,17.19999 1.13787,2.4011 2.84287,5.97297 3.78888,7.9375 0.94602,1.96453 1.79843,3.93986 1.89426,4.38962 0.28975,1.3599 -0.20933,1.54502 -4.46167,1.65498 -10.06974,0.26038 -29.0676,-2.94555 -40.36679,-6.81199 -2.11005,-0.72204 -5.6105,-1.92219 -7.77878,-2.66702 -2.16827,-0.74482 -4.09562,-1.29539 -4.283,-1.22349 -0.60403,0.23179 -0.89982,2.06382 -0.90155,5.58394 -0.003,6.54628 -0.65045,11.13301 -2.81593,19.95589 -1.42211,5.79415 -1.51932,7.512 -0.51129,9.03523 0.64213,0.97033 3.16708,2.90182 4.43937,3.39594 1.43885,0.55882 7.08945,3.34225 8.54389,4.20864 1.86531,1.11115 3.0427,2.12386 3.0427,2.61711 0,0.85508 -1.42783,4.30526 -2.91018,7.03209 -3.78602,6.96449 -6.14771,9.93216 -9.92509,12.47173 -6.74557,4.5351 -14.06115,6.11232 -19.99388,4.31064 -5.51056,-1.67348 -11.59324,-5.43834 -15.22096,-9.42099 -1.76002,-1.93222 -3.44464,-4.35044 -3.81731,-5.47966 -0.44775,-1.35668 -1.29489,-1.21795 -2.99574,0.49057 -3.173,3.18734 -5.69076,9.07332 -5.92561,13.85281 -0.15354,3.12483 0.0328,3.85532 1.73216,6.79 0.65475,1.1307 1.12289,2.12338 1.04032,2.20595 -0.44532,0.44532 -2.81298,0.62103 -8.44466,0.6267 -3.73789,0.004 -6.33177,-0.0965 -6.42563,-0.24835 -0.2369,-0.38332 -7.47175,-6.5981 -9.13627,-7.8481 -1.44697,-1.08665 -2.44133,-1.68682 -2.79468,-1.68682 -0.42028,0 0.19972,2.49224 1.03551,4.16246 1.25545,2.50883 1.77869,4.74012 1.94912,8.31179 0.28244,5.91919 -1.4084,9.30675 -4.28494,8.58478 -0.92187,-0.23137 -1.04146,-1.00252 -0.7356,-4.74353 0.55898,-6.837 -0.52368,-10.78215 -4.36851,-15.91862 -2.56082,-3.42111 -5.73914,-6.30855 -11.75202,-10.67648 -4.09558,-2.97515 -9.865,-11.11095 -10.45427,-14.7422 l -0.16654,-1.02623 0.77187,0.49129 c 1.40089,0.89167 3.6091,2.63993 6.04633,4.78695 6.51645,5.74049 10.12888,8.31113 16.55366,11.77969 5.44788,2.94117 5.55191,3.00047 7.67292,4.37389 2.7969,1.81109 4.71903,3.30683 7.24536,5.63815 1.2044,1.11142 2.95417,2.47092 3.88838,3.0211 1.43909,0.84752 1.89654,0.98897 2.99468,0.92604 1.89018,-0.10833 2.23125,-0.6866 2.54633,-4.31718 0.2992,-3.44749 0.4702,-4.21277 1.70005,-7.60839 1.68803,-4.66066 4.09634,-8.43411 7.53697,-11.80926 3.3775,-3.31323 5.18625,-3.94361 6.69909,-2.33477 0.44472,0.47294 1.22946,1.75286 1.74386,2.84427 4.29456,9.11184 12.04139,14.79217 20.28174,14.87147 3.12185,0.03 5.55254,-0.57119 8.63485,-2.13583 5.6527,-2.86941 9.6494,-6.84378 12.20319,-12.13502 1.69622,-3.51442 1.33049,-4.23052 -3.25766,-6.37841 -2.98836,-1.39896 -6.05573,-3.29738 -8.26724,-5.11665 -3.50551,-2.88376 -4.97656,-4.30898 -4.85459,-4.70334 0.0697,-0.22523 0.91435,-2.6717 1.87708,-5.43659 3.22845,-9.27193 3.96766,-13.7391 3.97667,-24.03191 l 0.006,-7.36315 -1.19062,-1.05384 c -1.5802,-1.39866 -6.55776,-4.72506 -7.07049,-4.72506 -1.55532,0 -16.33775,-13.18488 -20.45902,-18.248 -1.82194,-2.23831 -5.2473,-5.73807 -6.30751,-6.4445 -8.15438,-5.43341 -13.1304,-8.64501 -13.39449,-8.64501 -0.17983,0 -0.84795,0.18578 -1.48471,0.41285 -2.28778,0.81583 -6.4939,1.70551 -8.83066,1.86788 -4.27886,0.29731 -10.33929,-0.86762 -14.67864,-2.82152 -2.96737,-1.33614 -4.46647,-2.3597 -7.24915,-4.94962 -1.14622,-1.06682 -2.21766,-1.89513 -2.38098,-1.8407 -0.39751,0.13251 -1.83839,3.61641 -2.55828,6.18569 -1.49611,5.33953 -6.54643,12.81775 -11.23578,16.63728 -1.82895,1.4897 -5.64542,3.7776 -5.1294,3.07497 0.20335,-0.27688 1.14363,-1.42252 2.08952,-2.54587 6.91427,-8.21093 11.16362,-19.75865 13.24669,-35.997001 0.45939,-3.58111 0.39172,-12.360109 -0.12542,-16.271876 -1.70637,-12.907365 -4.57044,-21.781152 -9.94861,-30.82396 -2.80025,-4.708321 -7.20976,-9.028718 -11.70502,-11.468486 l -2.05052,-1.112901 -0.0136,25.208403 c -0.0149,27.659196 -0.33978,50.797491 -0.76825,54.709441 -0.28659,2.6166 -2.93141,13.65618 -3.66991,15.31837 l -0.42364,0.95351 -0.17944,-1.5875 c -0.0987,-0.87313 -0.19714,-2.36141 -0.21875,-3.30729 -0.0365,-1.59569 -0.0647,-1.67206 -0.3907,-1.05834 -1.4936,2.81156 -3.35421,10.49213 -3.84571,15.875 -0.55225,6.04815 -0.29909,16.2014 0.53765,21.56355 1.11141,7.12233 3.58018,14.24912 6.91985,19.97604 2.04651,3.5094 4.89482,13.12581 5.50142,18.57378 0.45995,4.13088 0.11371,6.98872 -1.51619,12.51477 -1.99414,6.76093 -7.00062,14.48034 -11.29055,17.4087 -2.12484,1.45045 0.32259,4.27096 8.49031,9.78454 5.82279,3.93065 11.2166,6.91845 19.256,10.66654 3.44153,1.60449 11.3198,4.60984 14.94896,5.70262 7.74154,2.33106 10.66737,3.04475 17.19792,4.19494 2.54391,0.44807 8.66305,0.94589 14.2875,1.1624 3.27371,0.12602 12.73898,-0.086 17.33021,-0.3882 z M 466.29224,203.238 c -0.99212,-0.7804 -2.16517,-2.85159 -1.81395,-3.20281 0.33536,-0.33536 3.91522,1.30895 4.6732,2.14651 0.47753,0.52767 0.47807,0.56471 0.0157,1.07565 -0.62779,0.6937 -1.98001,0.6846 -2.87493,-0.0193 z m -47.45563,-16.16228 c -3.8583,-0.44282 -8.5463,-4.07522 -11.58579,-8.97702 -3.00006,-4.83822 -5.34315,-12.02272 -6.20295,-19.01982 -0.35732,-2.90791 -0.35048,-7.97549 0.0148,-10.98715 1.14,-9.39812 5.99554,-18.35903 11.59363,-21.39605 2.11651,-1.14824 3.77655,-1.50928 7.69732,-1.67414 4.72436,-0.19864 6.70769,0.14453 9.68266,1.67534 7.85934,4.04412 13.79178,11.92233 17.30614,22.98235 1.36937,4.30952 2.89991,11.62197 2.90738,13.89062 0.005,1.61136 -1.42526,8.86947 -1.83929,9.3318 -0.10032,0.11203 -0.3318,-1.61438 -0.5144,-3.83645 -0.42841,-5.21332 -1.19862,-11.0391 -1.74397,-13.1912 -0.71927,-2.83844 -2.47425,-8.11117 -3.14186,-9.4395 -0.3464,-0.68926 -0.70934,-1.51016 -0.80651,-1.82423 -0.31359,-1.0135 -2.62975,-4.94896 -4.09611,-6.95982 -2.62109,-3.59435 -7.89148,-8.39278 -8.52378,-7.76048 -0.32987,0.32987 0.59924,2.65304 1.96803,4.92094 2.37426,3.93381 4.87694,12.1719 5.48146,18.04332 0.38118,3.70225 0.18366,10.11652 -0.40195,13.05319 -1.13757,5.70457 -3.26445,11.22672 -5.56659,14.45288 -1.74025,2.43874 -4.34344,4.80007 -6.30225,5.71671 -2.06847,0.96795 -3.7398,1.24962 -5.92601,0.99871 z m -6.18113,-18.31273 c 1.22131,-0.97498 1.85274,-5.16535 1.11082,-7.37181 -0.71497,-2.12628 -3.1037,-2.78484 -4.53675,-1.25075 -0.89667,0.95989 -1.44859,3.23262 -1.20919,4.97927 0.42193,3.07831 2.90146,5.02727 4.63512,3.64329 z m 10.24027,-10.3848 c 1.35679,-0.64384 3.1294,-2.78324 3.89909,-4.70589 1.84861,-4.61774 1.60894,-11.52645 -0.53779,-15.50245 -4.30507,-7.97349 -12.00231,-2.71346 -11.98702,8.19153 0.005,3.26018 0.46285,5.46046 1.61467,7.75234 1.13429,2.25701 1.71117,3.02325 2.9538,3.92341 1.23457,0.89432 2.64202,1.01263 4.05725,0.34106 z m -53.34421,-39.21607 c 0,-0.51596 1.00652,-3.54476 2.34407,-7.05373 1.97364,-5.17769 2.70781,-7.40481 3.70684,-11.24479 0.58682,-2.255576 1.20948,-5.113076 1.38368,-6.350003 0.45155,-3.20624 0.37789,-11.69891 -0.13039,-15.031946 -1.00056,-6.561193 -3.85057,-15.600191 -6.41457,-20.344233 -2.32,-4.292577 -3.09235,-5.900968 -2.91758,-6.075739 1.0732,-1.073198 5.33112,5.519301 7.97509,12.34775 1.18156,3.051588 2.5834,8.58401 3.21799,12.700001 0.57328,3.718287 0.654,12.946954 0.14464,16.536459 -0.95377,6.721321 -3.12424,13.904661 -5.87592,19.446871 -1.05577,2.12644 -3.11297,5.55625 -3.33264,5.55625 -0.0557,0 -0.10121,-0.2191 -0.10121,-0.48689 z m -21.42105,106.87396 c 4.14911,-4.17047 6.60183,-7.95192 8.06587,-12.43546 l 0.72636,-2.22444 -4.35404,-4.25785 c -6.28708,-6.14819 -9.35983,-10.16573 -12.86875,-16.82556 -2.89207,-5.48904 -6.05476,-14.59404 -6.75503,-19.44687 -0.23099,-1.60073 -0.54123,-6.18464 -0.68943,-10.18646 -0.29316,-7.91651 -0.33724,-8.70537 -0.96845,-17.33021 -0.47046,-6.42847 -0.36787,-11.28301 0.28903,-13.67718 0.97842,-3.56593 2.14511,-5.46619 6.07522,-9.89501 2.31689,-2.61088 4.05244,-5.31329 4.22747,-6.58254 0.0608,-0.44084 0.23927,-1.96004 0.39661,-3.37599 0.67244,-6.05164 5.24349,-16.348922 9.08599,-20.468193 2.27012,-2.43363 2.35005,-2.729715 2.6007,-9.633387 0.24625,-6.782377 0.32303,-42.597919 0.0913,-42.597919 -0.33763,0 -5.66233,4.246859 -8.36522,6.671909 -5.00038,4.486378 -12.46964,12.304498 -15.87019,16.611426 -4.45693,5.644864 -10.90353,17.680448 -16.43934,30.691667 -1.05178,2.472093 -3.62292,9.393327 -3.62292,9.752517 0,0.12431 -0.4195,1.59737 -0.93222,3.27347 -0.51272,1.67609 -1.39889,5.30518 -1.96927,8.06463 -1.863,9.01306 -2.48869,15.32511 -2.48603,25.07918 0.003,10.10935 0.54305,15.78913 2.36589,24.87083 2.20409,10.98115 5.43325,20.60382 10.34388,30.82396 2.15236,4.47956 2.62892,5.35257 5.96091,10.91964 4.62234,7.723 10.1692,14.91887 16.44595,21.33513 3.69053,3.77256 4.49306,4.3678 5.30741,3.93658 0.30247,-0.16016 1.80469,-1.5524 3.33827,-3.09387 z M 440.84734,70.976075 c 0.57525,-0.635648 0.45181,-1.704695 -0.63654,-5.512372 -1.93458,-6.768314 -6.46758,-16.872728 -9.16825,-20.436753 -3.22249,-4.252648 -4.62353,-5.136256 -5.22885,-3.29773 -0.15309,0.464981 -0.30499,6.629368 -0.36673,14.882813 l -0.10539,14.089063 h 1.98369 c 1.82788,0 2.02677,-0.05476 2.53206,-0.69714 0.49159,-0.624951 0.54837,-1.057182 0.54837,-4.174128 0,-4.319513 -0.30273,-6.802395 -1.48668,-12.193154 -0.96008,-4.371398 -1.46965,-8.823291 -0.97493,-8.517541 1.0268,0.634601 3.99149,12.063376 4.85161,18.702796 0.70852,5.46924 1.37749,6.737742 3.83617,7.274177 2.40571,0.524878 3.66427,0.489042 4.21547,-0.120031 z"
       id="path248" /></g></svg>
